<?xml version="1.0" encoding="utf-8"?>
<!-- Generator: Adobe Illustrator 17.0.0, SVG Export Plug-In . SVG Version: 6.00 Build 0)  -->
<!DOCTYPE svg PUBLIC "-//W3C//DTD SVG 1.1//EN" "http://www.w3.org/Graphics/SVG/1.1/DTD/svg11.dtd">
<svg version="1.1" id="Layer_1" xmlns="http://www.w3.org/2000/svg" xmlns:xlink="http://www.w3.org/1999/xlink" x="0px" y="0px"
	 width="481px" height="66px" viewBox="0 0 481 66" enable-background="new 0 0 481 66" xml:space="preserve">
<g>
	<g>
		<path opacity="0.4" fill="#FFFFFF" enable-background="new    " d="M6.182,17.736c4.092-3.124,10.006-9.015,13.144-13.09
			s9.601-5.8,14.364-3.833s12.842,4.123,17.955,4.791c5.112,0.668,9.844,5.381,10.515,10.472c0.671,5.091,2.836,13.138,4.811,17.882
			c1.975,4.743,0.243,11.181-3.849,14.305s-10.007,9.015-13.144,13.09s-9.601,5.8-14.364,3.833
			c-4.763-1.967-12.843-4.123-17.955-4.791s-9.843-5.38-10.514-10.472S4.309,36.785,2.334,32.042
			C0.358,27.298,2.09,20.861,6.182,17.736z"/>
		<path fill="#FFFFFF" d="M34.743,17.736c4.092-3.124,10.006-9.015,13.144-13.09c3.137-4.075,9.601-5.8,14.364-3.833
			s12.843,4.123,17.955,4.791s9.844,5.381,10.515,10.472s2.836,13.138,4.811,17.882c1.975,4.743,0.243,11.181-3.849,14.305
			c-4.092,3.124-10.007,9.015-13.144,13.09c-3.137,4.075-9.601,5.8-14.364,3.833c-4.763-1.967-12.843-4.123-17.955-4.791
			s-9.844-5.381-10.515-10.472c-0.671-5.091-2.836-13.138-4.811-17.882C28.919,27.298,30.651,20.861,34.743,17.736z"/>
	</g>
	<g>
		<path fill="#FFFFFF" d="M118.844,18.685v-5.188h14.492v5.188h-4.346l4.805,21.187c0.102,0.435,0.154,0.921,0.23,1.482
			c0.103,0.538,0.154,0.972,0.179,1.278l0.025,0.485h0.204c0.128-1.175,0.332-2.249,0.588-3.246l6.952-26.376h5.495l6.952,26.376
			c0.128,0.435,0.231,0.921,0.332,1.482c0.102,0.538,0.179,0.972,0.204,1.278l0.051,0.485h0.204
			c0.076-1.175,0.205-2.249,0.409-3.246l4.831-21.187h-4.346v-5.188h14.492v5.188h-3.399l-7.897,31.973h-7.693l-6.236-23.462
			c-0.102-0.461-0.23-0.946-0.332-1.508c-0.102-0.589-0.154-1.048-0.204-1.38l-0.051-0.51h-0.154
			c-0.102,1.252-0.281,2.376-0.562,3.399l-6.236,23.462h-7.693l-7.897-31.973L118.844,18.685L118.844,18.685L118.844,18.685z"/>
		<path fill="#FFFFFF" d="M170.967,37.318c0-2.659,0.665-5.06,1.968-7.208c1.329-2.146,3.092-3.808,5.316-4.984
			c2.249-1.2,4.703-1.789,7.36-1.789c2.709,0,5.137,0.563,7.386,1.763c2.249,1.176,4.013,2.863,5.342,5.01s1.993,4.55,1.993,7.208
			c0,2.657-0.639,5.086-1.967,7.232c-1.329,2.147-3.067,3.809-5.317,4.984c-2.224,1.176-4.677,1.763-7.386,1.763
			s-5.162-0.588-7.412-1.763c-2.224-1.175-3.987-2.81-5.316-4.958C171.631,42.429,170.967,40,170.967,37.318z M177.714,37.318
			c0,2.427,0.767,4.422,2.3,5.98c1.559,1.533,3.45,2.326,5.648,2.326s4.064-0.793,5.597-2.326c1.533-1.558,2.3-3.553,2.3-5.98
			c0-2.429-0.767-4.422-2.3-5.981c-1.533-1.585-3.399-2.351-5.597-2.351s-4.064,0.766-5.623,2.351
			C178.507,32.896,177.714,34.889,177.714,37.318z"/>
		<path fill="#FFFFFF" d="M204.251,28.935v-4.958h6.952c2.403,0,3.578,1.073,3.578,3.22v1.585l-0.102,1.661h0.102
			c0.639-1.995,1.713-3.63,3.22-4.907c1.533-1.304,3.271-1.943,5.239-1.943l1.201,0.104v6.543c-0.434-0.078-0.971-0.104-1.61-0.104
			c-1.277,0-2.453,0.231-3.476,0.793c-1.022,0.536-1.84,1.278-2.453,2.197c-0.613,0.921-1.048,1.942-1.38,3.093
			c-0.306,1.125-0.485,2.352-0.485,3.654v5.802h3.808v4.984h-14.337v-4.984h3.885V30.084c0-0.766-0.383-1.149-1.15-1.149H204.251
			L204.251,28.935z"/>
		<path fill="#FFFFFF" d="M226.389,18.455v-4.958h10.785v20.574h3.501l4.345-5.137h-3.092v-4.958h12.83v4.958h-3.45l-5.802,6.849
			v0.102c0.051,0,0.154,0.025,0.306,0.154c0.179,0.102,0.435,0.332,0.767,0.742c0.358,0.383,0.665,0.843,0.971,1.379l3.757,6.594
			c0.23,0.359,0.461,0.614,0.767,0.742c0.306,0.102,0.792,0.179,1.432,0.179h1.508v4.984h-4.959c-1.15,0-2.019-0.154-2.582-0.434
			c-0.562-0.306-1.099-0.921-1.61-1.866l-4.805-8.435c-0.102-0.23-0.255-0.383-0.434-0.536c-0.154-0.154-0.358-0.255-0.588-0.306
			c-0.204-0.076-0.383-0.128-0.588-0.128c-0.179-0.025-0.409-0.025-0.716-0.025h-1.559v6.747h2.888v4.984h-13.417v-4.984h3.885
			v-27.22h-4.14V18.455z"/>
		<path fill="#FFFFFF" d="M259.415,42.914v-4.242h6.236v2.785c0,1.151,0.613,2.046,1.891,2.761c1.278,0.689,2.837,1.048,4.652,1.048
			c1.942,0,3.475-0.41,4.651-1.202c1.202-0.819,1.79-1.942,1.79-3.399c0-0.383-0.025-0.716-0.128-1.048
			c-0.102-0.358-0.179-0.664-0.332-0.919c-0.128-0.281-0.332-0.538-0.588-0.793c-0.255-0.281-0.46-0.485-0.69-0.689
			c-0.204-0.204-0.51-0.409-0.92-0.64c-0.383-0.255-0.716-0.434-0.996-0.562c-0.255-0.154-0.639-0.306-1.15-0.511
			c-0.486-0.23-0.869-0.383-1.176-0.486c-0.281-0.128-0.716-0.281-1.277-0.485c-0.562-0.23-0.971-0.409-1.278-0.511
			c-0.818-0.332-1.508-0.589-2.121-0.844c-0.588-0.255-1.253-0.562-1.994-0.945c-0.716-0.41-1.355-0.768-1.866-1.151
			c-0.511-0.409-0.996-0.869-1.533-1.406c-0.511-0.562-0.92-1.098-1.253-1.712c-0.306-0.613-0.562-1.304-0.767-2.121
			c-0.204-0.819-0.306-1.687-0.306-2.607c0-1.815,0.332-3.374,1.022-4.754c0.716-1.38,1.636-2.453,2.811-3.246
			c1.201-0.817,2.53-1.406,3.961-1.789c1.456-0.409,3.016-0.588,4.651-0.588c2.019,0,3.91,0.23,5.648,0.715
			c1.763,0.461,3.195,1.227,4.371,2.25c1.175,1.022,1.763,2.197,1.763,3.578v4.881h-6.211v-2.505c0-0.919-0.537-1.61-1.661-2.121
			c-1.099-0.51-2.403-0.766-3.91-0.766c-1.61,0-2.938,0.306-3.987,1.022c-1.022,0.691-1.559,1.712-1.559,3.067
			c0,0.768,0.179,1.482,0.536,2.096c0.358,0.614,0.895,1.151,1.61,1.61c0.716,0.461,1.432,0.819,2.147,1.151
			c0.741,0.306,1.661,0.689,2.734,1.099c0.154,0.051,0.255,0.076,0.306,0.102c0.972,0.358,1.764,0.639,2.377,0.894
			c0.613,0.23,1.355,0.563,2.224,0.972s1.585,0.792,2.122,1.176c0.562,0.358,1.125,0.817,1.738,1.404
			c0.613,0.563,1.099,1.151,1.432,1.791c0.358,0.613,0.613,1.353,0.843,2.197c0.255,0.817,0.358,1.738,0.358,2.71
			c0,1.84-0.358,3.476-1.099,4.932c-0.716,1.43-1.687,2.581-2.965,3.476c-1.252,0.868-2.683,1.559-4.268,2.019
			c-1.585,0.459-3.271,0.689-5.06,0.689c-1.585,0-3.093-0.179-4.601-0.536c-1.482-0.358-2.837-0.868-4.089-1.533
			c-1.226-0.689-2.198-1.585-2.965-2.659C259.799,45.47,259.415,44.243,259.415,42.914z"/>
		<path fill="#FFFFFF" d="M289.299,18.455v-4.958h10.785V26.48c0,0.383,0.025,0.768-0.025,1.151
			c-0.025,0.358-0.051,0.639-0.102,0.843l-0.025,0.257h0.102c0.741-1.457,1.917-2.71,3.553-3.783c1.636-1.073,3.527-1.61,5.648-1.61
			c6.236,0,9.328,3.374,9.328,10.146v12.192h3.887v4.984h-10.531V34.863c0-1.789-0.306-3.118-0.919-4.038
			c-0.614-0.946-1.687-1.406-3.272-1.406c-2.3,0-4.14,0.844-5.546,2.582c-1.38,1.738-2.096,3.859-2.096,6.415v7.258h3.833v4.984
			h-14.363v-4.984h3.885v-27.22L289.299,18.455L289.299,18.455z"/>
		<path fill="#FFFFFF" d="M325.038,43.169c0-1.124,0.204-2.146,0.613-3.066c0.409-0.921,0.919-1.661,1.583-2.276
			c0.667-0.613,1.458-1.151,2.377-1.61c0.919-0.46,1.816-0.817,2.71-1.073c0.919-0.257,1.864-0.461,2.889-0.614
			c1.047-0.154,1.941-0.23,2.659-0.281c0.74-0.051,1.481-0.076,2.196-0.076h1.688v-0.895c0-1.61-0.409-2.785-1.331-3.501
			c-0.894-0.74-2.094-1.098-3.603-1.098c-1.174,0-2.375,0.204-3.654,0.638c-1.252,0.409-2.222,0.843-2.889,1.278l-0.996,0.639
			l-2.454-4.601c0.128-0.102,0.281-0.204,0.485-0.358c0.204-0.154,0.667-0.434,1.382-0.792c0.715-0.384,1.456-0.716,2.222-0.997
			c0.769-0.306,1.739-0.562,2.914-0.792c1.177-0.257,2.377-0.359,3.578-0.359c3.58,0,6.313,0.895,8.18,2.71
			c1.892,1.789,2.811,4.396,2.811,7.821v10.657c0,0.768,0.383,1.151,1.149,1.151h2.403v4.984h-6.288
			c-1.149,0-1.995-0.255-2.556-0.792c-0.562-0.563-0.843-1.227-0.843-2.046v-0.306c0-0.255,0-0.51,0.025-0.715
			c0.051-0.231,0.076-0.384,0.102-0.486l0.025-0.154h-0.102c-0.051,0.128-0.154,0.281-0.281,0.538
			c-0.102,0.23-0.383,0.639-0.894,1.252c-0.488,0.589-0.998,1.099-1.612,1.559c-0.588,0.461-1.379,0.844-2.403,1.227
			c-0.996,0.358-2.068,0.562-3.246,0.562c-1.558,0-2.99-0.306-4.318-0.868c-1.302-0.589-2.377-1.508-3.246-2.761
			C325.472,46.39,325.038,44.907,325.038,43.169z M331.734,42.659c0,1.023,0.358,1.891,1.047,2.607
			c0.715,0.689,1.662,1.047,2.837,1.047c1.737,0,3.169-0.74,4.369-2.274c1.228-1.533,1.816-3.195,1.816-4.958v-0.869h-1.101
			c-0.664,0-1.277,0-1.941,0.051c-0.639,0.051-1.382,0.155-2.301,0.359c-0.894,0.179-1.66,0.409-2.326,0.715
			c-0.664,0.306-1.2,0.716-1.686,1.304C331.99,41.202,331.734,41.893,331.734,42.659z"/>
		<path fill="#FFFFFF" d="M354.358,28.935v-4.958h6.875c1.177,0,1.995,0.23,2.505,0.689c0.536,0.46,0.792,1.048,0.792,1.815v0.154
			l-0.051,1.202h0.102c0.076-0.128,0.154-0.281,0.281-0.485c0.154-0.204,0.437-0.563,0.922-1.074
			c0.511-0.536,1.047-0.997,1.634-1.38c0.613-0.409,1.407-0.766,2.429-1.073c1.047-0.333,2.147-0.486,3.323-0.486
			c3.603,0,6.441,1.278,8.589,3.86c2.145,2.555,3.22,5.929,3.22,10.121c0,4.191-1.126,7.539-3.424,10.121
			c-2.301,2.556-5.215,3.859-8.767,3.859c-0.97,0-1.892-0.128-2.811-0.383c-0.894-0.255-1.637-0.588-2.199-0.945
			c-0.562-0.384-1.047-0.768-1.481-1.125c-0.409-0.383-0.715-0.691-0.919-0.946l-0.284-0.383h-0.102
			c0.102,0.613,0.156,1.38,0.156,2.3v6.339h3.884v4.984h-14.39v-4.984h3.859V30.084c0-0.766-0.383-1.149-1.149-1.149H354.358
			L354.358,28.935z M364.938,37.471c0,2.197,0.59,4.114,1.765,5.75c1.2,1.636,2.837,2.454,4.88,2.454
			c1.918,0,3.504-0.715,4.781-2.197s1.918-3.503,1.918-6.058c0-2.531-0.615-4.55-1.841-6.083s-2.811-2.3-4.806-2.3
			c-1.89,0-3.45,0.689-4.752,2.121C365.605,32.589,364.938,34.684,364.938,37.471z"/>
		<path fill="#FFFFFF" d="M388.714,37.318c0-4.141,1.254-7.463,3.757-10.07c2.531-2.607,5.802-3.911,9.788-3.911
			c3.734,0,6.619,1.176,8.716,3.578c2.122,2.403,3.169,5.419,3.169,9.099l-0.154,2.249h-18.479c0.204,2.352,1.075,4.167,2.556,5.47
			c1.509,1.278,3.323,1.942,5.445,1.942c0.817,0,1.634-0.076,2.454-0.281c0.843-0.204,1.532-0.46,2.145-0.716
			c0.613-0.281,1.177-0.562,1.662-0.817c0.51-0.281,0.868-0.51,1.124-0.716l0.358-0.281l2.582,4.703
			c-0.102,0.102-0.281,0.23-0.485,0.409c-0.204,0.154-0.664,0.461-1.382,0.895c-0.715,0.409-1.43,0.792-2.222,1.125
			c-0.766,0.306-1.765,0.613-2.99,0.894c-1.228,0.255-2.454,0.409-3.705,0.409c-2.863,0-5.368-0.639-7.592-1.917
			c-2.196-1.278-3.884-2.99-5.034-5.086C389.302,42.174,388.714,39.847,388.714,37.318z M395.666,34.327h11.63
			c-0.051-1.789-0.536-3.22-1.532-4.268c-0.973-1.073-2.199-1.585-3.657-1.585c-1.66,0-3.041,0.512-4.217,1.585
			C396.741,31.132,396,32.538,395.666,34.327z"/>
		<path fill="#FFFFFF" d="M419.722,50.659v-6.696h6.645v6.696H419.722z"/>
		<path fill="#FFFFFF" d="M432.172,28.935v-4.958h10.787v21.698h3.808v4.984h-14.339v-4.984h3.887v-16.74H432.172z M436.263,19.402
			v-5.904h6.696v5.904H436.263z"/>
		<path fill="#FFFFFF" d="M450.117,37.318c0-2.659,0.667-5.06,1.969-7.208c1.328-2.146,3.093-3.808,5.317-4.984
			c2.247-1.2,4.702-1.789,7.36-1.789c2.71,0,5.136,0.563,7.386,1.763c2.25,1.176,4.012,2.863,5.342,5.01
			c1.328,2.147,1.992,4.55,1.992,7.208c0,2.657-0.638,5.086-1.966,7.232c-1.331,2.147-3.067,3.809-5.317,4.984
			c-2.225,1.176-4.676,1.763-7.386,1.763s-5.164-0.588-7.411-1.763c-2.225-1.175-3.989-2.81-5.317-4.958
			C450.784,42.429,450.117,40,450.117,37.318z M456.865,37.318c0,2.427,0.769,4.422,2.301,5.98c1.561,1.533,3.45,2.326,5.649,2.326
			c2.196,0,4.063-0.793,5.598-2.326c1.532-1.558,2.298-3.553,2.298-5.98c0-2.429-0.766-4.422-2.298-5.981
			c-1.535-1.585-3.402-2.351-5.598-2.351c-2.199,0-4.063,0.766-5.624,2.351C457.659,32.896,456.865,34.889,456.865,37.318z"/>
	</g>
</g>
</svg>
